<?xml version="1.0" standalone="no"?>
<!DOCTYPE svg PUBLIC "-//W3C//DTD SVG 20010904//EN"
 "http://www.w3.org/TR/2001/REC-SVG-20010904/DTD/svg10.dtd">
<svg version="1.0" xmlns="http://www.w3.org/2000/svg"
 width="1024.000000pt" height="1024.000000pt" viewBox="0 0 1024.000000 1024.000000"
 preserveAspectRatio="xMidYMid meet">
<metadata>
Created by potrace 1.14, written by Peter Selinger 2001-2017
</metadata>
<g transform="translate(0.000000,1024.000000) scale(0.100000,-0.100000)"
fill="#000000" stroke="none">
<path d="M4869 9626 c-2 -2 -49 -7 -104 -10 -55 -3 -109 -8 -120 -10 -11 -2
-51 -7 -89 -11 -53 -5 -66 -4 -60 6 4 8 3 10 -5 5 -6 -4 -9 -12 -6 -17 4 -5
-4 -9 -17 -8 -13 0 -57 -5 -98 -12 -41 -7 -85 -13 -97 -13 -13 -1 -23 -3 -23
-7 0 -3 -35 -11 -77 -18 -43 -7 -82 -16 -88 -19 -5 -4 -21 -8 -35 -10 -31 -4
-274 -74 -355 -102 -33 -11 -67 -23 -75 -25 -8 -2 -16 -4 -17 -5 -2 -2 -6 -3
-10 -5 -5 -1 -17 -5 -28 -10 -110 -44 -147 -55 -156 -49 -7 4 -9 3 -5 -4 3 -6
-4 -14 -16 -17 -13 -4 -47 -18 -76 -31 -29 -14 -58 -21 -64 -18 -6 4 -8 2 -5
-3 6 -10 -41 -35 -68 -37 -5 -1 -12 -4 -15 -7 -3 -4 -52 -31 -110 -61 -146
-76 -193 -102 -205 -111 -29 -23 -186 -117 -195 -117 -5 0 -10 -4 -10 -10 0
-5 -7 -10 -15 -10 -8 0 -15 -4 -15 -8 0 -5 -12 -15 -27 -23 -16 -8 -30 -16
-33 -19 -3 -4 -27 -22 -55 -41 -54 -38 -81 -58 -100 -76 -8 -7 -18 -13 -23
-13 -6 0 -12 -3 -14 -8 -1 -4 -25 -25 -53 -47 -27 -22 -61 -50 -74 -62 -14
-12 -29 -19 -35 -16 -6 3 -8 3 -4 -2 8 -9 -32 -42 -45 -37 -5 1 -6 -1 -3 -6 8
-13 -53 -64 -66 -56 -6 4 -8 3 -5 -2 7 -13 -117 -137 -127 -127 -4 5 -6 4 -5
-2 5 -13 -32 -55 -43 -49 -4 3 -8 0 -8 -6 0 -6 -24 -37 -54 -68 -101 -108
-126 -136 -126 -144 0 -4 -7 -8 -15 -8 -8 0 -14 -4 -13 -8 5 -14 -74 -102 -85
-95 -6 3 -7 2 -4 -4 4 -6 -26 -52 -65 -104 -40 -52 -100 -135 -134 -186 -34
-51 -65 -89 -69 -85 -3 4 -5 2 -4 -3 5 -15 -53 -115 -63 -109 -5 3 -8 2 -7 -3
1 -4 -1 -17 -6 -28 -12 -29 -78 -139 -88 -146 -5 -3 -8 -9 -8 -13 3 -20 0 -26
-9 -21 -6 4 -10 3 -9 -2 4 -23 -3 -45 -18 -61 -10 -10 -19 -27 -21 -37 -2 -11
-10 -25 -18 -31 -7 -6 -11 -14 -8 -17 9 -9 -22 -48 -31 -39 -5 4 -5 2 -1 -5 3
-6 -14 -57 -39 -112 -24 -56 -50 -119 -57 -141 -7 -22 -16 -40 -20 -40 -5 0
-8 -9 -8 -21 0 -11 -4 -18 -9 -15 -5 4 -7 -3 -4 -14 3 -11 1 -20 -4 -20 -5 0
-10 -11 -11 -26 -1 -14 -6 -33 -12 -43 -5 -10 -21 -54 -35 -97 -14 -44 -28
-86 -32 -94 -5 -14 -9 -26 -16 -55 -1 -5 -6 -16 -10 -22 -5 -7 -6 -13 -3 -13
2 0 -4 -29 -14 -65 -10 -36 -19 -69 -20 -73 -3 -20 -13 -58 -18 -67 -3 -5 -7
-21 -8 -35 -5 -55 -29 -160 -36 -160 -4 0 -5 -6 -2 -14 3 -8 0 -41 -7 -73 -13
-66 -16 -84 -18 -131 -1 -21 -5 -31 -12 -26 -8 4 -8 0 0 -15 11 -20 8 -26 -13
-22 -5 1 -4 -4 2 -12 7 -8 9 -30 5 -58 -3 -24 -6 -65 -7 -91 0 -27 -4 -48 -7
-48 -9 0 -8 -692 0 -705 9 -13 8 -26 -3 -44 -6 -10 -5 -12 2 -7 8 5 12 -5 13
-31 2 -77 5 -98 13 -112 5 -8 4 -16 -4 -21 -8 -5 -9 -9 -1 -11 5 -2 12 -28 14
-57 2 -29 7 -55 10 -59 4 -3 1 -13 -6 -21 -10 -13 -9 -14 2 -7 11 6 13 3 9
-13 -4 -12 -2 -22 4 -22 6 0 8 -11 6 -25 -3 -14 -1 -25 5 -25 5 0 3 -8 -4 -17
-10 -11 -10 -14 -1 -9 8 5 12 -1 14 -21 1 -35 3 -44 12 -65 4 -9 5 -21 2 -27
-3 -5 0 -12 6 -14 10 -4 10 -6 0 -6 -10 -1 -10 -5 2 -17 19 -18 21 -38 4 -28
-10 6 -10 5 -1 -7 7 -9 14 -24 16 -35 1 -10 6 -25 10 -32 5 -6 6 -16 2 -21 -3
-5 -1 -12 4 -15 5 -4 8 -17 7 -31 -2 -13 0 -22 4 -20 10 6 17 -22 16 -57 -1
-14 2 -24 6 -22 4 3 9 -2 9 -10 2 -25 4 -30 13 -45 5 -8 4 -16 -5 -22 -11 -7
-10 -9 5 -9 12 0 16 -5 12 -15 -3 -8 -1 -15 5 -15 6 0 9 -7 6 -15 -4 -8 -2
-17 4 -21 6 -3 8 -11 6 -17 -2 -7 2 -18 10 -25 7 -7 16 -31 19 -53 4 -21 11
-39 17 -39 6 0 8 -3 4 -6 -3 -4 0 -19 8 -34 11 -22 12 -30 2 -33 -7 -4 -6 -6
4 -6 9 -1 21 -17 27 -40 15 -48 15 -54 0 -45 -8 4 -10 3 -5 -2 5 -5 14 -9 20
-9 7 0 12 -4 12 -10 1 -5 11 -32 23 -59 13 -28 20 -56 18 -63 -3 -7 0 -12 6
-10 7 1 14 -6 16 -15 3 -14 -1 -16 -15 -11 -10 3 -15 3 -11 -1 3 -4 13 -9 22
-10 9 -1 15 -5 14 -8 -2 -3 5 -15 15 -25 9 -11 14 -22 11 -26 -4 -3 1 -13 10
-22 9 -9 14 -21 11 -26 -4 -5 -3 -9 2 -9 9 0 33 -49 32 -64 -1 -5 6 -13 14
-17 8 -5 18 -21 22 -36 3 -15 10 -30 14 -33 13 -9 63 -100 55 -100 -4 0 1 -7
12 -16 10 -8 12 -13 4 -9 -10 4 -9 2 2 -8 10 -8 18 -19 18 -25 0 -6 5 -12 10
-14 6 -2 12 -13 13 -26 0 -12 7 -22 13 -22 7 0 15 -8 19 -18 7 -19 4 -28 -8
-24 -5 1 -6 -2 -2 -7 3 -6 11 -8 18 -5 16 6 42 -39 33 -55 -5 -7 -1 -9 8 -5 9
3 16 1 16 -6 0 -6 6 -18 12 -25 33 -37 39 -46 33 -55 -4 -6 -1 -9 7 -8 7 2 12
-3 10 -9 -1 -7 2 -13 8 -13 5 0 10 -7 10 -16 0 -8 4 -12 10 -9 5 3 10 -1 10
-9 0 -9 5 -16 12 -16 6 0 9 -3 5 -6 -3 -4 4 -14 16 -24 19 -16 20 -20 7 -36
-10 -14 -10 -16 -1 -7 16 13 18 12 69 -53 17 -23 32 -47 32 -54 0 -6 5 -8 10
-5 6 3 10 3 10 -2 0 -4 11 -21 25 -37 13 -16 22 -32 19 -37 -3 -5 2 -6 10 -3
9 3 16 2 16 -3 0 -5 20 -31 44 -58 25 -27 42 -53 39 -58 -3 -6 -1 -7 4 -4 14
9 37 -19 28 -32 -3 -6 0 -8 8 -5 8 3 20 -2 27 -11 10 -12 10 -18 -1 -33 -13
-15 -12 -16 3 -4 19 15 38 8 38 -12 0 -8 8 -20 18 -27 15 -12 16 -12 7 1 -5 9
-2 8 7 -3 9 -10 14 -25 11 -32 -3 -8 0 -15 7 -15 6 0 8 5 4 11 -4 7 -1 10 7 7
8 -3 13 -12 13 -21 -1 -9 4 -13 12 -10 9 3 14 -2 14 -13 0 -9 3 -15 6 -11 4 3
30 -18 60 -47 29 -30 56 -51 60 -47 4 3 4 -2 1 -12 -4 -10 -3 -16 1 -13 13 8
53 -24 46 -36 -4 -7 -2 -8 4 -4 10 6 32 -10 108 -82 13 -13 24 -20 24 -17 0 3
9 -4 20 -15 12 -12 18 -25 15 -30 -3 -5 0 -12 6 -16 8 -4 9 -3 5 4 -4 7 -1 12
8 12 9 0 16 -3 16 -7 0 -5 14 -16 31 -25 18 -11 27 -22 23 -29 -4 -7 -3 -9 4
-5 13 8 81 -35 82 -52 0 -7 4 -10 10 -7 5 3 10 1 10 -4 0 -6 7 -11 15 -11 8 0
15 -4 15 -10 0 -5 7 -10 15 -10 8 0 15 -4 15 -10 0 -5 7 -10 15 -10 9 0 18 -7
21 -15 4 -8 10 -12 15 -9 5 3 9 0 9 -5 0 -6 7 -11 15 -11 9 0 18 -7 21 -15 4
-8 10 -12 15 -10 4 3 17 -3 29 -15 11 -11 22 -20 25 -19 3 0 23 -10 43 -23 20
-12 42 -24 47 -27 6 -2 21 -13 34 -25 13 -11 21 -15 16 -7 -5 9 1 7 19 -4 14
-10 26 -21 26 -25 0 -4 8 -7 18 -6 9 0 16 -4 15 -9 -1 -6 8 -12 20 -12 12 -1
23 -7 25 -13 2 -5 7 -8 12 -5 5 3 15 -2 23 -10 9 -8 26 -16 38 -18 12 -2 26
-12 30 -23 4 -10 8 -14 8 -8 1 7 23 1 55 -15 30 -14 52 -30 49 -35 -3 -5 -1
-6 6 -2 11 7 71 -13 71 -24 0 -3 10 -6 22 -7 12 -1 31 -12 41 -25 10 -13 16
-17 12 -10 -7 14 21 17 30 2 3 -6 15 -10 26 -10 12 0 17 -4 14 -11 -4 -6 -1
-9 6 -8 21 5 69 -10 69 -21 0 -5 6 -7 14 -4 8 3 17 0 21 -5 3 -6 11 -9 16 -6
5 4 9 2 9 -4 0 -6 7 -8 15 -5 8 4 15 1 15 -7 0 -7 3 -10 6 -6 10 10 64 -14 57
-26 -4 -7 1 -6 10 2 9 7 17 9 17 4 0 -5 12 -10 26 -11 15 -1 33 -10 41 -20 8
-9 12 -11 8 -4 -3 6 -1 12 4 12 6 0 11 -4 11 -10 0 -5 7 -6 17 -3 9 4 14 2 11
-3 -3 -5 10 -10 30 -11 20 -1 38 -6 40 -11 2 -6 12 -8 22 -5 11 3 20 0 20 -6
0 -6 7 -8 17 -4 10 4 14 2 10 -4 -4 -6 3 -8 18 -5 14 2 25 0 25 -7 0 -5 7 -8
15 -5 8 4 23 3 33 -2 9 -4 24 -8 34 -8 9 -1 20 -4 24 -8 4 -5 15 -8 25 -8 9 0
20 -6 22 -12 4 -10 6 -10 6 0 1 6 6 12 12 12 5 0 8 -4 5 -9 -3 -4 6 -7 20 -5
34 3 55 -5 47 -20 -3 -6 -1 -6 8 2 15 14 33 16 25 3 -3 -4 7 -6 22 -4 21 4 24
2 12 -6 -8 -6 -10 -11 -5 -11 6 0 16 5 23 12 7 7 12 8 12 2 0 -5 10 -9 23 -10
63 -3 132 -16 146 -27 12 -9 13 -9 7 1 -4 6 -3 12 3 12 5 0 12 -6 14 -12 4
-10 6 -10 6 -1 1 7 8 10 16 6 14 -5 14 -8 -2 -27 l-18 -21 25 21 c14 12 34 20
45 18 11 -2 40 -5 65 -6 25 -1 52 -9 60 -18 8 -9 11 -11 7 -4 -10 16 11 23 43
14 14 -4 37 -6 53 -5 15 1 27 -1 27 -4 0 -3 35 -5 77 -4 52 2 80 -2 85 -10 4
-6 8 -7 8 -2 0 15 43 16 52 2 6 -9 8 -9 8 1 0 6 5 12 11 12 5 0 7 -5 4 -11 -4
-6 2 -5 13 2 17 11 24 10 38 -2 10 -8 15 -9 12 -3 -9 14 133 16 150 2 9 -8 11
-7 7 3 -4 11 9 14 62 14 38 0 74 -4 82 -9 9 -6 12 -5 7 2 -3 6 -2 13 4 17 5 3
10 3 10 -2 0 -4 11 -8 24 -8 13 0 22 3 20 6 -2 4 12 9 31 11 23 3 35 0 35 -8
0 -7 4 -15 9 -18 5 -4 7 2 4 13 -4 16 0 18 26 16 18 -1 31 2 31 9 0 6 5 4 10
-4 7 -11 10 -11 10 -2 0 7 5 10 10 7 6 -4 7 -11 4 -17 -4 -7 -2 -8 5 -4 6 4 9
12 6 17 -4 5 1 9 10 9 9 0 13 -4 10 -10 -3 -5 8 -2 24 8 29 16 31 16 44 -2 11
-15 16 -16 22 -6 5 9 4 11 -3 6 -7 -4 -12 -1 -12 6 0 8 8 14 18 15 9 1 34 2
55 4 20 1 37 5 37 8 0 3 12 7 28 7 15 1 37 4 50 7 13 4 22 1 22 -6 0 -8 2 -9
8 -1 12 19 45 30 84 30 20 -1 34 2 31 7 -2 4 1 7 6 7 6 0 11 -6 11 -12 0 -7 5
-5 11 4 12 22 33 24 25 2 -3 -8 -2 -12 4 -9 6 3 10 13 10 21 0 8 10 15 25 15
14 1 33 2 43 2 9 1 22 8 29 17 11 13 12 13 13 0 0 -13 1 -13 10 0 5 8 10 11
10 6 0 -5 7 -3 15 4 9 7 26 10 42 6 18 -4 23 -3 15 2 -11 8 -11 10 1 15 8 3
20 0 27 -6 9 -8 11 -8 7 -1 -6 10 64 38 95 39 3 0 10 3 14 7 4 4 13 3 21 -4
11 -9 12 -7 6 8 -6 17 -5 18 12 4 11 -9 16 -10 11 -2 -4 7 0 14 11 18 10 3 26
10 37 15 13 7 16 7 11 0 -9 -16 4 -13 22 4 8 8 19 13 24 10 5 -4 9 -1 9 4 0 6
6 11 14 11 8 0 33 9 57 19 24 11 47 17 51 15 4 -3 8 0 8 7 0 8 4 8 15 -1 13
-11 14 -10 9 4 -4 12 -1 16 14 16 12 0 24 5 28 11 4 8 9 7 15 -2 7 -11 9 -10
9 4 0 10 8 17 20 17 11 0 20 5 20 10 0 6 3 9 8 8 4 -1 35 12 69 29 34 17 63
29 66 27 2 -3 10 2 16 10 7 8 20 12 28 9 11 -4 14 -2 9 5 -4 7 -2 13 3 13 6 1
16 2 21 3 6 0 15 8 20 16 5 8 10 11 10 7 0 -5 13 1 29 12 16 12 36 21 45 21 9
0 16 4 16 10 0 5 11 12 25 16 14 3 25 10 25 15 0 12 119 71 130 64 5 -3 12 0
16 6 4 8 3 9 -4 5 -7 -4 -12 -2 -12 3 0 6 7 11 15 11 8 0 15 4 15 10 0 5 8 7
18 3 9 -3 14 -2 10 2 -11 11 60 58 74 49 7 -4 8 -3 4 4 -8 13 28 35 39 24 5
-4 5 -2 2 4 -3 6 12 21 33 35 22 13 40 29 40 34 0 6 5 3 10 -5 8 -13 10 -13
10 2 0 10 10 23 23 29 12 7 26 18 30 26 5 7 13 11 18 8 5 -4 7 -10 4 -15 -3
-5 -1 -11 4 -15 6 -3 8 5 5 19 -2 13 2 29 11 36 8 7 15 9 15 6 0 -4 10 2 23
14 12 11 34 30 48 42 15 13 41 35 58 51 17 15 35 27 40 27 5 0 12 7 15 16 4 9
13 14 22 10 8 -3 12 -2 9 4 -3 5 11 24 31 42 21 18 49 44 62 58 14 14 21 19
17 11 -5 -9 -4 -12 3 -7 7 4 12 14 12 22 0 8 4 13 9 10 5 -3 11 4 14 15 4 15
11 20 22 15 10 -3 14 -2 10 5 -4 5 3 19 16 30 18 15 25 17 38 6 14 -11 14 -10
2 5 -11 15 -9 21 15 47 15 16 31 28 36 25 4 -3 8 0 8 6 0 6 4 9 9 5 5 -3 13 0
17 6 4 8 3 9 -4 5 -7 -4 -12 -3 -12 2 0 12 30 37 31 26 0 -5 4 1 10 14 5 14
13 20 20 16 8 -4 9 -3 5 4 -4 7 -2 12 4 12 6 0 8 5 4 12 -5 8 -2 9 10 5 11 -4
15 -3 11 4 -9 13 25 50 38 42 5 -3 7 -1 4 4 -8 13 27 55 38 45 5 -4 5 -2 2 4
-3 6 9 27 27 47 19 21 32 37 30 37 -2 0 4 8 14 18 9 11 21 17 26 14 5 -3 7 2
3 11 -3 10 -3 17 1 17 4 0 16 13 27 29 10 16 23 27 29 24 5 -3 6 -1 2 5 -3 6
0 16 7 24 8 7 19 24 26 36 7 12 16 20 22 17 5 -4 9 -3 8 2 -3 20 2 34 11 28 5
-3 7 0 4 8 -3 8 2 17 11 21 9 3 13 10 10 16 -3 5 -1 10 4 10 6 0 11 5 11 11 0
7 10 20 22 30 11 11 17 19 12 19 -5 0 -1 7 9 14 10 8 18 17 17 20 -1 13 31 66
40 66 6 0 9 3 8 8 -3 12 25 62 34 62 5 0 6 5 3 10 -3 6 -1 10 4 10 6 0 11 5
11 11 0 7 8 18 18 26 9 8 11 12 4 8 -6 -3 -3 10 9 29 12 20 25 33 30 30 5 -3
6 2 3 10 -3 9 -1 16 5 16 6 0 8 6 5 13 -2 7 4 22 14 32 10 11 18 22 18 25 1
20 39 88 47 83 6 -3 7 -1 3 5 -4 7 2 29 13 50 10 20 25 51 32 69 7 17 17 29
21 27 4 -3 5 1 2 9 -3 8 2 22 11 31 9 9 14 20 11 24 -3 5 1 18 9 28 8 10 15
27 15 37 0 11 4 15 12 11 6 -4 8 -3 5 3 -6 9 10 66 25 89 4 6 19 46 33 90 14
43 30 88 35 99 5 11 14 39 20 63 6 23 15 42 20 42 6 0 10 5 10 11 0 5 -4 8 -8
5 -5 -3 -1 17 7 44 9 26 19 46 22 44 3 -2 4 8 1 21 -2 14 0 25 6 25 6 0 9 9 7
20 -2 11 1 20 6 20 6 0 8 4 4 10 -3 5 -3 21 1 35 5 22 9 24 23 13 13 -10 14
-10 4 2 -14 15 -18 60 -5 60 4 0 8 19 10 42 1 22 6 46 9 51 4 6 8 26 9 45 1
19 8 38 16 43 11 7 11 9 -1 9 -10 0 -11 3 -2 14 6 8 11 18 10 22 -4 25 2 85 9
81 4 -3 7 11 8 31 2 75 9 120 18 115 4 -3 5 5 1 17 -5 15 -2 25 6 31 10 6 10
9 2 9 -7 0 -10 9 -7 22 3 13 5 40 4 61 -1 29 2 37 12 31 10 -6 11 -5 1 7 -6 8
-9 20 -5 26 4 6 7 38 6 72 0 33 2 59 5 57 3 -2 4 23 3 56 -3 49 -1 59 10 52
10 -6 11 -5 1 7 -7 9 -12 84 -14 224 -2 116 -7 216 -12 223 -6 8 -5 12 2 12 7
0 9 4 6 10 -7 11 -18 105 -19 162 -1 21 -5 38 -10 38 -5 0 -2 8 5 17 8 10 9
14 2 10 -8 -5 -12 2 -12 20 0 16 -3 44 -6 63 -3 19 -8 49 -10 65 -2 17 -6 41
-9 55 -28 127 -45 233 -40 242 4 7 3 8 -4 4 -8 -4 -12 0 -12 11 0 10 -16 74
-35 142 -19 68 -32 128 -29 133 3 4 1 8 -4 8 -11 0 -33 70 -26 82 3 4 1 8 -5
8 -8 0 -24 49 -22 65 1 3 -6 19 -14 35 -9 17 -13 36 -9 42 4 7 3 8 -4 4 -11
-7 -16 12 -15 51 1 7 -3 10 -8 7 -8 -5 -14 17 -10 39 0 4 -3 7 -8 7 -8 0 -24
40 -26 65 0 6 -8 21 -18 35 -9 13 -17 27 -17 31 0 4 -21 51 -47 105 -25 55
-46 105 -46 112 0 6 -4 12 -8 12 -4 0 -13 16 -20 35 -7 19 -17 35 -22 35 -5 0
-7 9 -4 20 3 11 1 18 -3 15 -12 -8 -33 33 -24 47 4 6 3 8 -3 5 -12 -7 -75 107
-65 118 4 5 2 6 -4 2 -5 -3 -19 11 -30 31 -10 20 -25 43 -32 50 -7 8 -10 17
-7 22 3 5 1 10 -4 12 -17 6 -101 139 -95 150 4 6 3 8 -3 5 -14 -9 -46 40 -37
55 4 6 3 8 -4 4 -9 -5 -76 76 -133 160 -8 13 -30 40 -48 59 -17 19 -30 35 -27
35 2 0 -13 17 -33 38 -54 58 -76 86 -73 94 1 5 -2 7 -6 5 -4 -1 -24 16 -43 37
-65 74 -226 232 -351 342 -26 23 -44 45 -40 49 4 4 2 5 -3 3 -15 -4 -66 38
-57 47 4 5 2 5 -4 2 -6 -4 -25 6 -42 21 -17 15 -43 36 -58 47 -15 11 -33 26
-40 33 -7 6 -17 12 -23 12 -6 0 -11 4 -11 8 0 4 -18 19 -39 32 -21 14 -36 30
-33 35 3 6 2 7 -3 3 -4 -4 -57 26 -117 67 -60 41 -112 75 -114 75 -15 0 -73
48 -66 55 4 5 1 5 -6 1 -11 -7 -128 57 -144 79 -4 5 -8 6 -8 2 0 -9 -61 22
-71 36 -3 5 -10 9 -15 9 -17 1 -39 11 -58 27 -10 9 -20 15 -22 13 -2 -1 -47
18 -100 43 -54 25 -98 45 -100 45 -1 0 -24 10 -51 22 -26 11 -52 22 -58 24 -5
2 -59 22 -120 44 -60 23 -114 43 -120 44 -5 2 -21 8 -35 13 -14 6 -41 14 -60
18 -19 4 -39 10 -45 13 -5 4 -14 7 -20 8 -5 1 -37 10 -70 19 -58 16 -163 43
-195 49 -8 2 -22 6 -30 9 -14 5 -181 36 -305 56 -33 6 -85 13 -115 15 -30 3
-71 8 -90 11 -19 3 -60 8 -90 11 -69 6 -635 16 -641 10z"/>
<path d="M9385 3520 c-3 -6 1 -7 9 -4 18 7 21 14 7 14 -6 0 -13 -4 -16 -10z"/>
<path d="M1273 2635 c0 -8 4 -12 9 -9 4 3 8 9 8 15 0 5 -4 9 -8 9 -5 0 -9 -7
-9 -15z"/>
<path d="M1315 2480 c-3 -5 -1 -10 4 -10 6 0 11 5 11 10 0 6 -2 10 -4 10 -3 0
-8 -4 -11 -10z"/>
<path d="M1395 2481 c-3 -5 -2 -12 3 -15 5 -3 9 1 9 9 0 17 -3 19 -12 6z"/>
<path d="M8735 2380 c3 -5 8 -10 11 -10 2 0 4 5 4 10 0 6 -5 10 -11 10 -5 0
-7 -4 -4 -10z"/>
<path d="M8628 2263 c7 -3 16 -2 19 1 4 3 -2 6 -13 5 -11 0 -14 -3 -6 -6z"/>
<path d="M8575 2180 c3 -5 8 -10 11 -10 2 0 4 5 4 10 0 6 -5 10 -11 10 -5 0
-7 -4 -4 -10z"/>
<path d="M8640 2180 c-9 -6 -10 -10 -3 -10 6 0 15 5 18 10 8 12 4 12 -15 0z"/>
<path d="M1720 2120 c-9 -6 -10 -10 -3 -10 6 0 15 5 18 10 8 12 4 12 -15 0z"/>
<path d="M8555 2080 c-3 -5 -1 -10 4 -10 6 0 11 5 11 10 0 6 -2 10 -4 10 -3 0
-8 -4 -11 -10z"/>
<path d="M1750 1981 c0 -6 4 -13 10 -16 6 -3 7 1 4 9 -7 18 -14 21 -14 7z"/>
<path d="M8386 1922 c-3 -5 1 -9 9 -9 8 0 12 4 9 9 -3 4 -7 8 -9 8 -2 0 -6 -4
-9 -8z"/>
<path d="M8265 1860 c-3 -6 1 -7 9 -4 18 7 21 14 7 14 -6 0 -13 -4 -16 -10z"/>
<path d="M8206 1802 c-3 -5 1 -9 9 -9 8 0 12 4 9 9 -3 4 -7 8 -9 8 -2 0 -6 -4
-9 -8z"/>
<path d="M8160 1760 c-9 -6 -10 -10 -3 -10 6 0 15 5 18 10 8 12 4 12 -15 0z"/>
<path d="M2073 1715 c0 -8 4 -12 9 -9 4 3 8 9 8 15 0 5 -4 9 -8 9 -5 0 -9 -7
-9 -15z"/>
<path d="M2136 1703 c-6 -14 -5 -15 5 -6 7 7 10 15 7 18 -3 3 -9 -2 -12 -12z"/>
<path d="M2196 1667 c3 -10 9 -15 12 -12 3 3 0 11 -7 18 -10 9 -11 8 -5 -6z"/>
<path d="M8055 1671 c-3 -5 -2 -12 3 -15 5 -3 9 1 9 9 0 17 -3 19 -12 6z"/>
<path d="M2271 1553 c7 -12 15 -20 18 -17 3 2 -3 12 -13 22 -17 16 -18 16 -5
-5z"/>
<path d="M2374 1502 c4 -3 14 -7 22 -8 9 -1 13 0 10 4 -4 3 -14 7 -22 8 -9 1
-13 0 -10 -4z"/>
<path d="M7906 1478 c3 -5 10 -6 15 -3 13 9 11 12 -6 12 -8 0 -12 -4 -9 -9z"/>
<path d="M2406 1458 c3 -5 10 -6 15 -3 13 9 11 12 -6 12 -8 0 -12 -4 -9 -9z"/>
<path d="M7835 1440 c3 -5 8 -10 11 -10 2 0 4 5 4 10 0 6 -5 10 -11 10 -5 0
-7 -4 -4 -10z"/>
<path d="M2533 1385 c0 -8 4 -12 9 -9 5 3 6 10 3 15 -9 13 -12 11 -12 -6z"/>
<path d="M7665 1360 c-3 -6 1 -7 9 -4 18 7 21 14 7 14 -6 0 -13 -4 -16 -10z"/>
<path d="M2576 1342 c-3 -5 1 -9 9 -9 8 0 12 4 9 9 -3 4 -7 8 -9 8 -2 0 -6 -4
-9 -8z"/>
<path d="M7613 1325 c0 -8 4 -12 9 -9 5 3 6 10 3 15 -9 13 -12 11 -12 -6z"/>
<path d="M7454 1236 c1 -8 5 -18 8 -22 4 -3 5 1 4 10 -1 8 -5 18 -8 22 -4 3
-5 -1 -4 -10z"/>
<path d="M7400 1220 c-9 -6 -10 -10 -3 -10 6 0 15 5 18 10 8 12 4 12 -15 0z"/>
<path d="M2855 1180 c3 -5 8 -10 11 -10 2 0 4 5 4 10 0 6 -5 10 -11 10 -5 0
-7 -4 -4 -10z"/>
<path d="M2996 1082 c-3 -5 1 -9 9 -9 8 0 12 4 9 9 -3 4 -7 8 -9 8 -2 0 -6 -4
-9 -8z"/>
<path d="M3096 1063 c-6 -14 -5 -15 5 -6 7 7 10 15 7 18 -3 3 -9 -2 -12 -12z"/>
<path d="M3050 1060 c0 -5 5 -10 11 -10 5 0 7 5 4 10 -3 6 -8 10 -11 10 -2 0
-4 -4 -4 -10z"/>
<path d="M7175 1060 c3 -5 8 -10 11 -10 2 0 4 5 4 10 0 6 -5 10 -11 10 -5 0
-7 -4 -4 -10z"/>
<path d="M3110 1021 c0 -6 4 -13 10 -16 6 -3 7 1 4 9 -7 18 -14 21 -14 7z"/>
<path d="M7070 1025 c0 -7 30 -13 34 -7 3 4 -4 9 -15 9 -10 1 -19 0 -19 -2z"/>
<path d="M3390 899 c0 -5 5 -7 10 -4 6 3 10 8 10 11 0 2 -4 4 -10 4 -5 0 -10
-5 -10 -11z"/>
<path d="M6780 900 c-8 -5 -10 -10 -5 -10 6 0 17 5 25 10 8 5 11 10 5 10 -5 0
-17 -5 -25 -10z"/>
<path d="M3471 807 c2 -1 13 -9 24 -17 19 -14 19 -14 6 3 -7 9 -18 17 -24 17
-6 0 -8 -1 -6 -3z"/>
<path d="M6476 794 c-5 -14 -4 -15 9 -4 17 14 19 20 6 20 -5 0 -12 -7 -15 -16z"/>
<path d="M6633 793 c0 -9 4 -10 14 -2 7 6 13 12 13 14 0 1 -6 2 -13 2 -8 0
-14 -6 -14 -14z"/>
<path d="M3915 751 c-3 -5 -2 -12 3 -15 5 -3 9 1 9 9 0 17 -3 19 -12 6z"/>
<path d="M6713 745 c0 -8 4 -12 9 -9 5 3 6 10 3 15 -9 13 -12 11 -12 -6z"/>
<path d="M3814 736 c1 -8 5 -18 8 -22 4 -3 5 1 4 10 -1 8 -5 18 -8 22 -4 3 -5
-1 -4 -10z"/>
<path d="M6366 738 c3 -5 10 -6 15 -3 13 9 11 12 -6 12 -8 0 -12 -4 -9 -9z"/>
<path d="M6426 742 c-3 -5 1 -9 9 -9 8 0 12 4 9 9 -3 4 -7 8 -9 8 -2 0 -6 -4
-9 -8z"/>
<path d="M6115 701 c-3 -5 -2 -12 3 -15 5 -3 9 1 9 9 0 17 -3 19 -12 6z"/>
<path d="M6157 693 c-10 -9 -9 -23 1 -23 5 0 9 7 9 15 0 17 -1 18 -10 8z"/>
<path d="M6346 678 c3 -5 10 -6 15 -3 13 9 11 12 -6 12 -8 0 -12 -4 -9 -9z"/>
<path d="M5950 660 c0 -5 5 -10 11 -10 5 0 7 5 4 10 -3 6 -8 10 -11 10 -2 0
-4 -4 -4 -10z"/>
<path d="M6010 659 c0 -5 5 -7 10 -4 6 3 10 8 10 11 0 2 -4 4 -10 4 -5 0 -10
-5 -10 -11z"/>
<path d="M6090 660 c0 -5 5 -10 11 -10 5 0 7 5 4 10 -3 6 -8 10 -11 10 -2 0
-4 -4 -4 -10z"/>
<path d="M5853 625 c0 -8 4 -12 9 -9 5 3 6 10 3 15 -9 13 -12 11 -12 -6z"/>
<path d="M4315 619 c-3 -4 2 -6 10 -5 21 3 28 13 10 13 -9 0 -18 -4 -20 -8z"/>
<path d="M4376 618 c3 -4 11 -5 19 -1 21 7 19 12 -4 10 -11 0 -18 -5 -15 -9z"/>
<path d="M5886 622 c-3 -5 1 -9 9 -9 8 0 12 4 9 9 -3 4 -7 8 -9 8 -2 0 -6 -4
-9 -8z"/>
<path d="M4665 600 c-3 -6 1 -7 9 -4 18 7 21 14 7 14 -6 0 -13 -4 -16 -10z"/>
<path d="M5380 606 c0 -2 8 -10 18 -17 15 -13 16 -12 3 4 -13 16 -21 21 -21
13z"/>
<path d="M5726 598 c3 -5 10 -6 15 -3 13 9 11 12 -6 12 -8 0 -12 -4 -9 -9z"/>
<path d="M5495 580 c3 -5 8 -10 11 -10 2 0 4 5 4 10 0 6 -5 10 -11 10 -5 0 -7
-4 -4 -10z"/>
<path d="M5526 578 c3 -5 10 -6 15 -3 13 9 11 12 -6 12 -8 0 -12 -4 -9 -9z"/>
<path d="M5594 582 c4 -3 14 -7 22 -8 9 -1 13 0 10 4 -4 3 -14 7 -22 8 -9 1
-13 0 -10 -4z"/>
<path d="M4474 569 c-3 -6 -2 -15 3 -20 5 -5 9 -1 9 11 0 23 -2 24 -12 9z"/>
<path d="M5353 555 c0 -8 4 -12 9 -9 5 3 6 10 3 15 -9 13 -12 11 -12 -6z"/>
<path d="M5155 540 c-3 -5 -1 -10 4 -10 6 0 11 5 11 10 0 6 -2 10 -4 10 -3 0
-8 -4 -11 -10z"/>
<path d="M5470 519 c0 -5 5 -7 10 -4 6 3 10 8 10 11 0 2 -4 4 -10 4 -5 0 -10
-5 -10 -11z"/>
</g>
</svg>
